<svg xmlns="http://www.w3.org/2000/svg" xmlns:xlink="http://www.w3.org/1999/xlink" width="230" height="46" version="1.1" viewBox="0 0 230 46"><title>Black Full Logo</title><desc>Created with Sketch.</desc><defs><linearGradient id="linearGradient-1" x1="114.721%" x2="39.54%" y1="181.283%" y2="100%"><stop offset="0%" stop-color="#FFF"/><stop offset="100%" stop-color="#000"/></linearGradient></defs><g id="Page-1" fill="none" fill-rule="evenodd" stroke="none" stroke-width="1"><g id="Black-Full-Logo-" fill-rule="nonzero" transform="translate(-235.000000, -177.000000)"><g id="Black-Full-Logo" transform="translate(235.000000, 177.000000)"><polygon id="Triangle" fill="url(#linearGradient-1)" points="25.492 0 50.983 45.226 0 45.226"/><path id="ZEIT" fill="#333" d="M85.75,34 L106.2,34 L106.2,30.45 L90.85,30.45 L105.95,8.9 L105.95,5.8 L86,5.8 L86,9.35 L100.85,9.35 L85.75,30.9 L85.75,34 Z M127.6,34 L145.95,34 L145.95,30.45 L131.75,30.45 L131.75,21.4 L144.1,21.4 L144.1,17.85 L131.75,17.85 L131.75,9.35 L145.95,9.35 L145.95,5.8 L127.6,5.8 L127.6,34 Z M168.05,34 L185.95,34 L185.95,30.45 L179.1,30.45 L179.1,9.35 L185.95,9.35 L185.95,5.8 L168.05,5.8 L168.05,9.35 L174.95,9.35 L174.95,30.45 L168.05,30.45 L168.05,34 Z M215.4,34 L219.55,34 L219.55,9.35 L229.15,9.35 L229.15,5.8 L205.9,5.8 L205.9,9.35 L215.4,9.35 L215.4,34 Z"/></g></g></g></svg>